<svg id="Layer_1" data-name="Layer 1" xmlns="http://www.w3.org/2000/svg" viewBox="0 0 724.8 528.59"><title>splash</title><rect width="724.8" height="241.54" style="fill:#fff"/><polygon points="12.99 18.6 12.99 59.41 91.2 59.41 12.99 222.92 156.09 222.92 156.09 181.98 77.89 181.98 156.09 18.6 12.99 18.6" style="fill:#ff7835"/><path d="M309.84,222.41H354l-21-46.82L302.58,206Q306.21,214.23,309.84,222.41Z" style="fill:#ffba35"/><path d="M261,14.79L168.39,222.41h44c4.69-10.39,9.38-20.66,13.94-31.05l0.25,0.13h69.59l3.06,6.92L329.61,168ZM243.3,155.36l18.13-42.46,18,42.46H243.3Z" style="fill:#ff7835"/><path d="M495.79,131c8.62-12.17,12.93-23.32,12.93-38.53V86.15c0-19.65-5.7-32.83-19.77-46.9a67.68,67.68,0,0,0-10.84-8.78l-30.7,30.7a26,26,0,0,1,11,6.21c6,6.08,8.11,11.66,8.11,20s-2.15,15.34-8.11,21.29-10.27,8.11-18.76,8.11l-29.28-.13V98.23L369.49,139.1l0.05,83.83h40.94V143.07l52.22,79.85h49.94l-46.14-71.11C479.95,146.74,487.17,143.19,495.79,131Z" style="fill:#ffba35"/><path d="M410.36,59.16H433.3c1.58,0,3.24.08,4.92,0.24l32.93-32.93a78.82,78.82,0,0,0-35.32-8.12H369.42l0.07,109.79,40.87-40.87V59.16Z" style="fill:#ff7835"/><path d="M618.87,14.79L526.21,222.41h44c4.69-10.39,9.38-20.66,13.94-31.05l0.25,0.13H654c4.56,10.27,9.13,20.66,13.69,30.93h44.11ZM601.12,155.36l18.13-42.46,18,42.46H601.12Z" style="fill:#ffba35"/><path d="M275.78,221.83l5.48,5.48L302.58,206l-3.37-7.6Z" style="fill:#fff"/><path d="M410.36,87.26v11l37-37a46.34,46.34,0,0,0-9.18-1.79Z" style="fill:#fff"/><polygon points="329.61 168.01 333 175.59 369.49 139.09 369.49 128.13 329.61 168.01" style="fill:#fff"/><path d="M493.22,15.37l-5.48-5.48L471.15,26.46a70.45,70.45,0,0,1,7,4Z" style="fill:#fff"/><path d="M35.48,278.25V357H74.85v19.74H15.74V278.25H35.48Z" style="fill:#86e1f1"/><path d="M141.29,278.25v19.68H101.93v19.74h29.52v19.68H101.93V357h39.36v19.74H82.19V278.25h59.11Z" style="fill:#86e1f1"/><path d="M192.28,378.61L148,278.25h20.84L192.22,332l23.35-53.73h21.09Z" style="fill:#86e1f1"/><path d="M303.1,278.25v19.68H263.74v19.74h29.52v19.68H263.74V357H303.1v19.74H244V278.25H303.1Z" style="fill:#86e1f1"/><path d="M371.38,332.71V278.25h19.74V378.61L332,322.26v54.52H312.28V276.41Z" style="fill:#86e1f1"/><path d="M444.07,278.25H468.7v19.68H444.07v78.85H424.33V297.93H399.69V278.25h44.37Z" style="fill:#86e1f1"/><path d="M497,278.25v39.42h29.52V278.25h19.74v98.53H526.53V337.35H497v39.42H477.27V278.25H497Z" style="fill:#86e1f1"/><path d="M581.37,361.56c-2.2,5-4.46,10-6.72,15H553.43l44.68-100.12,44.8,100.12H621.65c-2.2-5-4.4-10-6.6-14.91H581.49ZM607,344.2l-8.68-20.48-8.74,20.48H607Z" style="fill:#86e1f1"/><path d="M670.19,278.25V357h39.36v19.74h-59.1V278.25h19.74Z" style="fill:#86e1f1"/><path d="M13.49,424H55v14.19H13.49V424Z" style="fill:#ff55a1"/><path d="M60.24,424h41.47v14.19H60.24V424Z" style="fill:#ff55a1"/><path d="M107,424h41.47v14.19H107V424Z" style="fill:#ff55a1"/><path d="M153.74,424h41.47v14.19H153.74V424Z" style="fill:#ff55a1"/><path d="M200.49,424H242v14.19H200.49V424Z" style="fill:#ff55a1"/><path d="M247.24,424h41.47v14.19H247.24V424Z" style="fill:#ff55a1"/><path d="M294,424h41.47v14.19H294V424Z" style="fill:#ff55a1"/><path d="M340.75,424h41.47v14.19H340.75V424Z" style="fill:#ff55a1"/><path d="M387.5,424H429v14.19H387.5V424Z" style="fill:#ff55a1"/><path d="M434.25,424h41.47v14.19H434.25V424Z" style="fill:#ff55a1"/><path d="M481,424h41.47v14.19H481V424Z" style="fill:#ff55a1"/><path d="M527.75,424h41.47v14.19H527.75V424Z" style="fill:#ff55a1"/><path d="M574.5,424H616v14.19H574.5V424Z" style="fill:#ff55a1"/><path d="M621.25,424h41.47v14.19H621.25V424Z" style="fill:#ff55a1"/><path d="M668,424h41.47v14.19H668V424Z" style="fill:#ff55a1"/><path d="M34.69,516.54A17.05,17.05,0,0,1,31.06,518a15,15,0,0,1-4.08.54,7.74,7.74,0,0,1-3-.5,3.72,3.72,0,0,1-1.83-1.58,6,6,0,0,1-.71-2.78,17.86,17.86,0,0,1,.4-4.12l1.7-8.38a11.22,11.22,0,0,0,.29-2.38,4.07,4.07,0,0,0-.26-1.53,1.55,1.55,0,0,0-.74-0.81,2.58,2.58,0,0,0-1.13-.24,8.91,8.91,0,0,0-3.34.66A29.07,29.07,0,0,0,15,498.51v-3.84a17.53,17.53,0,0,1,3.63-1.5,14.7,14.7,0,0,1,4.08-.55,7.74,7.74,0,0,1,3,.5,3.72,3.72,0,0,1,1.83,1.58,6,6,0,0,1,.71,2.78,17.89,17.89,0,0,1-.4,4.12L26.16,510a13.34,13.34,0,0,0-.27,2.39,3.7,3.7,0,0,0,.26,1.52,1.61,1.61,0,0,0,.74.81,2.48,2.48,0,0,0,1.12.24,8.89,8.89,0,0,0,3.34-.66,31.81,31.81,0,0,0,3.34-1.58v3.84Zm-10.3-30.4a3.61,3.61,0,0,1,.27-1.42,3.38,3.38,0,0,1,.76-1.12,3.66,3.66,0,0,1,1.13-.75,3.55,3.55,0,0,1,1.4-.27,3.27,3.27,0,0,1,1.32.26,3.33,3.33,0,0,1,1,.7,3,3,0,0,1,.67,1,3.42,3.42,0,0,1,.24,1.27,3.61,3.61,0,0,1-.27,1.42,3.4,3.4,0,0,1-.76,1.12,3.64,3.64,0,0,1-1.13.75,3.53,3.53,0,0,1-1.4.27,3.33,3.33,0,0,1-1.33-.26,3.15,3.15,0,0,1-1-.7,3.1,3.1,0,0,1-.66-1A3.42,3.42,0,0,1,24.39,486.14Z" style="fill:#9ee00f"/><path d="M43.07,504.57q0.1-.47.21-1.25t0.26-2.08l0.37-3.29q0.22-2,.52-4.88h4.09l-0.62,5.79a13.51,13.51,0,0,1,4.18-4.63,9.38,9.38,0,0,1,5.27-1.61q4,0,5.62,2.39t0.71,7.06l-3.22,16H56.14l3.22-16q0.62-3-.09-4.4a2.77,2.77,0,0,0-2.71-1.36,5.55,5.55,0,0,0-3.18,1.1,13.62,13.62,0,0,0-3,2.86,20.91,20.91,0,0,0-3.84,8.34l-1.9,9.45H40.35Z" style="fill:#9ee00f"/><path d="M89.08,517.76a24.68,24.68,0,0,1-3.1.54,26.18,26.18,0,0,1-2.73.16,14.81,14.81,0,0,1-4.35-.56A5.57,5.57,0,0,1,74.73,513a14.23,14.23,0,0,1,.31-4.7l2.29-11.55h-7l0.72-3.64h7l1.4-6.88L84,485.07l-1.65,8H93.62l-0.72,3.64H81.68l-2.34,11.7a11.5,11.5,0,0,0-.27,2.93,3.91,3.91,0,0,0,.6,2,2.94,2.94,0,0,0,1.52,1.12,7.8,7.8,0,0,0,2.54.35,18,18,0,0,0,2.32-.19,29.74,29.74,0,0,0,3-.59v3.74Z" style="fill:#9ee00f"/><path d="M102.3,507q-0.12.65-.19,1.22a10.3,10.3,0,0,0-.06,1.12,5.29,5.29,0,0,0,1.62,4.16,7.36,7.36,0,0,0,5,1.45,29.14,29.14,0,0,0,4.35-.32q2.16-.32,3.85-0.75v3.57a33.7,33.7,0,0,1-4.2.81,35.67,35.67,0,0,1-4.73.31q-5.29,0-7.81-2.36t-2.52-6.82a19.37,19.37,0,0,1,1.07-6.48,17.17,17.17,0,0,1,3-5.32,14.24,14.24,0,0,1,4.5-3.62,12.27,12.27,0,0,1,5.67-1.33,13.13,13.13,0,0,1,3.78.5,8.77,8.77,0,0,1,2.81,1.37,6,6,0,0,1,1.75,2.06,5.59,5.59,0,0,1,.6,2.56,6.87,6.87,0,0,1-.76,3.24,6.56,6.56,0,0,1-2.42,2.48,13.36,13.36,0,0,1-4.28,1.6A30.72,30.72,0,0,1,107,507H102.3Zm4.64-3.34a25.64,25.64,0,0,0,4.58-.34,10,10,0,0,0,2.87-.91,3.61,3.61,0,0,0,1.48-1.32,3.1,3.1,0,0,0,.42-1.55,3.25,3.25,0,0,0-.27-1.32,2.93,2.93,0,0,0-.86-1.1,4.39,4.39,0,0,0-1.47-.75,7.07,7.07,0,0,0-2.08-.27,7.66,7.66,0,0,0-5.36,2.06,10.32,10.32,0,0,0-1.9,2.38,16.2,16.2,0,0,0-1.4,3.12h4Z" style="fill:#9ee00f"/><path d="M128.34,504.57q0.1-.47.21-1.25t0.26-2.08l0.37-3.29q0.22-2,.52-4.88h4.09l-0.62,5.79a23.22,23.22,0,0,1,1.9-2.41,13,13,0,0,1,2.24-2,10.93,10.93,0,0,1,2.67-1.35,9.66,9.66,0,0,1,3.17-.5q4.12,0,5.69,2.57t0.5,7.43h-4.41a14.11,14.11,0,0,0,.37-2.92,4.69,4.69,0,0,0-.34-1.93,2.17,2.17,0,0,0-1-1.07,3.44,3.44,0,0,0-1.58-.34,6.4,6.4,0,0,0-3.49,1.08,12.92,12.92,0,0,0-3.1,2.84,19,19,0,0,0-2.42,4,20.05,20.05,0,0,0-1.46,4.41l-1.9,9.45h-4.39Z" style="fill:#9ee00f"/><path d="M167.92,492.77A21.83,21.83,0,0,1,171,493a20,20,0,0,1,2.82.61l3.94-1-2.82,14q-0.1.47-.21,1.25t-0.26,2.08l-0.37,3.29q-0.22,2-.52,4.88h-4.09l0.62-5.76a13.25,13.25,0,0,1-4.18,4.6,9.54,9.54,0,0,1-5.32,1.61,7.59,7.59,0,0,1-3.13-.6,5.76,5.76,0,0,1-2.21-1.71,7.4,7.4,0,0,1-1.3-2.66,13,13,0,0,1-.42-3.44,23.62,23.62,0,0,1,.94-6.75,16.8,16.8,0,0,1,2.76-5.52,13.18,13.18,0,0,1,4.5-3.74A13.37,13.37,0,0,1,167.92,492.77Zm-10,17a7.11,7.11,0,0,0,.82,3.72,2.89,2.89,0,0,0,2.67,1.35,5.05,5.05,0,0,0,2.14-.5,9.24,9.24,0,0,0,2.09-1.37,13.55,13.55,0,0,0,1.93-2.06,21,21,0,0,0,1.67-2.54,20.4,20.4,0,0,0,2.16-5.8l1-5.14a14.53,14.53,0,0,0-2.41-.79,10.14,10.14,0,0,0-2.28-.29,8.47,8.47,0,0,0-3.57.7,8.68,8.68,0,0,0-2.62,1.82,9.68,9.68,0,0,0-1.8,2.56,16.92,16.92,0,0,0-1.11,2.93,19.22,19.22,0,0,0-.57,2.92A22.27,22.27,0,0,0,157.94,509.73Z" style="fill:#9ee00f"/><path d="M200.79,517.09a26.31,26.31,0,0,1-3.89,1,20.62,20.62,0,0,1-3.67.32q-5,0-7.68-2.31t-2.69-6.92a18.64,18.64,0,0,1,1.2-6.85,15.55,15.55,0,0,1,3.27-5.2,14.34,14.34,0,0,1,4.84-3.3,15.07,15.07,0,0,1,5.89-1.16,24,24,0,0,1,3.6.27,16.39,16.39,0,0,1,3.43.9l-0.77,3.94a14.75,14.75,0,0,0-3.12-1,15.6,15.6,0,0,0-3.37-.39,9.2,9.2,0,0,0-4.45,1,10.08,10.08,0,0,0-3.25,2.78,12.59,12.59,0,0,0-2,3.94,15.15,15.15,0,0,0-.69,4.53,5.91,5.91,0,0,0,1.65,4.56,6.89,6.89,0,0,0,4.84,1.52,18.18,18.18,0,0,0,3.45-.35,17.58,17.58,0,0,0,3.43-1v3.67Z" style="fill:#9ee00f"/><path d="M229.49,517.76a24.68,24.68,0,0,1-3.1.54,26.18,26.18,0,0,1-2.73.16,14.81,14.81,0,0,1-4.35-.56,5.57,5.57,0,0,1-4.16-4.94,14.23,14.23,0,0,1,.31-4.7l2.29-11.55h-7l0.72-3.64h7l1.4-6.88,4.59-1.12-1.65,8H234l-0.72,3.64H222.08l-2.34,11.7a11.5,11.5,0,0,0-.27,2.93,3.91,3.91,0,0,0,.6,2,2.94,2.94,0,0,0,1.52,1.12,7.8,7.8,0,0,0,2.54.35,18,18,0,0,0,2.32-.19,29.74,29.74,0,0,0,3-.59v3.74Z" style="fill:#9ee00f"/><path d="M259.34,516.54a17.05,17.05,0,0,1-3.63,1.48,15,15,0,0,1-4.08.54,7.74,7.74,0,0,1-3-.5,3.72,3.72,0,0,1-1.83-1.58,6,6,0,0,1-.71-2.78,17.86,17.86,0,0,1,.4-4.12l1.7-8.38a11.22,11.22,0,0,0,.29-2.38,4.07,4.07,0,0,0-.26-1.53,1.55,1.55,0,0,0-.74-0.81,2.58,2.58,0,0,0-1.13-.24,8.91,8.91,0,0,0-3.34.66,29.07,29.07,0,0,0-3.34,1.61v-3.84a17.53,17.53,0,0,1,3.63-1.5,14.7,14.7,0,0,1,4.08-.55,7.74,7.74,0,0,1,3,.5,3.72,3.72,0,0,1,1.83,1.58,6,6,0,0,1,.71,2.78,17.89,17.89,0,0,1-.4,4.12l-1.7,8.38a13.34,13.34,0,0,0-.27,2.39,3.7,3.7,0,0,0,.26,1.52,1.61,1.61,0,0,0,.74.81,2.48,2.48,0,0,0,1.12.24,8.89,8.89,0,0,0,3.34-.66,31.81,31.81,0,0,0,3.34-1.58v3.84ZM249,486.14a3.61,3.61,0,0,1,.27-1.42,3.38,3.38,0,0,1,.76-1.12,3.66,3.66,0,0,1,1.13-.75,3.55,3.55,0,0,1,1.4-.27,3.27,3.27,0,0,1,1.32.26,3.33,3.33,0,0,1,1,.7,3,3,0,0,1,.67,1,3.42,3.42,0,0,1,.24,1.27,3.61,3.61,0,0,1-.27,1.42,3.4,3.4,0,0,1-.76,1.12,3.64,3.64,0,0,1-1.13.75,3.53,3.53,0,0,1-1.4.27,3.33,3.33,0,0,1-1.33-.26,3.15,3.15,0,0,1-1-.7,3.1,3.1,0,0,1-.66-1A3.42,3.42,0,0,1,249,486.14Z" style="fill:#9ee00f"/><path d="M267.67,493.07h4.69l2.77,16.56,0.6,4.24a25.25,25.25,0,0,0,3.85-4.41,31.58,31.58,0,0,0,2.84-5.1,33.2,33.2,0,0,0,1.88-5.54,40.18,40.18,0,0,0,1-5.75h4.91a34.65,34.65,0,0,1-1.55,7,41.15,41.15,0,0,1-2.91,6.71,40.61,40.61,0,0,1-4.09,6.14,38.53,38.53,0,0,1-5.1,5.24h-4.19Z" style="fill:#9ee00f"/><path d="M298.87,507q-0.12.65-.19,1.22a10.3,10.3,0,0,0-.06,1.12,5.29,5.29,0,0,0,1.62,4.16,7.36,7.36,0,0,0,5,1.45,29.14,29.14,0,0,0,4.35-.32q2.16-.32,3.85-0.75v3.57a33.7,33.7,0,0,1-4.2.81,35.67,35.67,0,0,1-4.73.31q-5.29,0-7.81-2.36t-2.52-6.82a19.37,19.37,0,0,1,1.07-6.48,17.17,17.17,0,0,1,3-5.32,14.24,14.24,0,0,1,4.5-3.62,12.27,12.27,0,0,1,5.67-1.33,13.13,13.13,0,0,1,3.78.5A8.77,8.77,0,0,1,315,494.5a6,6,0,0,1,1.75,2.06,5.59,5.59,0,0,1,.6,2.56,6.87,6.87,0,0,1-.76,3.24,6.56,6.56,0,0,1-2.42,2.48,13.36,13.36,0,0,1-4.28,1.6,30.72,30.72,0,0,1-6.33.56h-4.69Zm4.64-3.34a25.64,25.64,0,0,0,4.58-.34,10,10,0,0,0,2.87-.91,3.61,3.61,0,0,0,1.48-1.32,3.1,3.1,0,0,0,.42-1.55,3.25,3.25,0,0,0-.27-1.32,2.93,2.93,0,0,0-.86-1.1,4.39,4.39,0,0,0-1.47-.75,7.07,7.07,0,0,0-2.08-.27,7.66,7.66,0,0,0-5.36,2.06,10.32,10.32,0,0,0-1.9,2.38,16.2,16.2,0,0,0-1.4,3.12h4Z" style="fill:#9ee00f"/><path d="M364.48,492.77a25.92,25.92,0,0,1,3,.15,14.37,14.37,0,0,1,2.33.47l2.09-10.52h4.34l-4.76,23.74q-0.1.47-.21,1.25T371,509.94l-0.37,3.29q-0.22,2-.52,4.88h-4.09l0.62-5.76a13.25,13.25,0,0,1-4.18,4.6,9.54,9.54,0,0,1-5.32,1.61A7.59,7.59,0,0,1,354,518a5.76,5.76,0,0,1-2.21-1.71,7.4,7.4,0,0,1-1.3-2.66,13,13,0,0,1-.42-3.44,23.62,23.62,0,0,1,.94-6.75,16.8,16.8,0,0,1,2.76-5.52,13.18,13.18,0,0,1,4.5-3.74A13.37,13.37,0,0,1,364.48,492.77Zm-10,17a7.11,7.11,0,0,0,.82,3.72,2.89,2.89,0,0,0,2.67,1.35,5.05,5.05,0,0,0,2.14-.5,9.24,9.24,0,0,0,2.09-1.37,13.55,13.55,0,0,0,1.93-2.06,21,21,0,0,0,1.67-2.54,20.4,20.4,0,0,0,2.16-5.8l1-5.14a14.53,14.53,0,0,0-2.41-.79,10.14,10.14,0,0,0-2.28-.29,8.47,8.47,0,0,0-3.57.7,8.68,8.68,0,0,0-2.62,1.82,9.68,9.68,0,0,0-1.8,2.56,16.92,16.92,0,0,0-1.11,2.93,19.22,19.22,0,0,0-.57,2.92A22.27,22.27,0,0,0,354.51,509.73Z" style="fill:#9ee00f"/><path d="M399.75,516.54a17.05,17.05,0,0,1-3.63,1.48,15,15,0,0,1-4.08.54,7.74,7.74,0,0,1-3-.5,3.72,3.72,0,0,1-1.83-1.58,6,6,0,0,1-.71-2.78,17.86,17.86,0,0,1,.4-4.12l1.7-8.38a11.22,11.22,0,0,0,.29-2.38,4.07,4.07,0,0,0-.26-1.53,1.55,1.55,0,0,0-.74-0.81,2.58,2.58,0,0,0-1.13-.24,8.91,8.91,0,0,0-3.34.66,29.07,29.07,0,0,0-3.34,1.61v-3.84a17.53,17.53,0,0,1,3.63-1.5,14.7,14.7,0,0,1,4.08-.55,7.74,7.74,0,0,1,3,.5,3.72,3.72,0,0,1,1.83,1.58,6,6,0,0,1,.71,2.78,17.89,17.89,0,0,1-.4,4.12l-1.7,8.38a13.34,13.34,0,0,0-.27,2.39,3.7,3.7,0,0,0,.26,1.52,1.61,1.61,0,0,0,.74.81,2.48,2.48,0,0,0,1.12.24,8.89,8.89,0,0,0,3.34-.66,31.81,31.81,0,0,0,3.34-1.58v3.84Zm-10.3-30.4a3.61,3.61,0,0,1,.27-1.42,3.38,3.38,0,0,1,.76-1.12,3.66,3.66,0,0,1,1.13-.75,3.55,3.55,0,0,1,1.4-.27,3.27,3.27,0,0,1,1.32.26,3.33,3.33,0,0,1,1,.7,3,3,0,0,1,.67,1,3.42,3.42,0,0,1,.24,1.27,3.61,3.61,0,0,1-.27,1.42,3.4,3.4,0,0,1-.76,1.12,3.64,3.64,0,0,1-1.13.75,3.53,3.53,0,0,1-1.4.27,3.33,3.33,0,0,1-1.33-.26,3.15,3.15,0,0,1-1-.7,3.1,3.1,0,0,1-.66-1A3.42,3.42,0,0,1,389.45,486.14Z" style="fill:#9ee00f"/><path d="M420.95,518.61q0.37-1.62.78-3.14t0.84-2.87a12.38,12.38,0,0,1-1.76,2.51,11.18,11.18,0,0,1-2.18,1.87,9.93,9.93,0,0,1-2.52,1.17,9.41,9.41,0,0,1-2.77.41,7.6,7.6,0,0,1-3.13-.6,5.76,5.76,0,0,1-2.21-1.71,7.4,7.4,0,0,1-1.3-2.66,13,13,0,0,1-.42-3.44,23.65,23.65,0,0,1,.93-6.75,16.8,16.8,0,0,1,2.76-5.52,13.18,13.18,0,0,1,4.5-3.74,13.37,13.37,0,0,1,6.17-1.37,21.81,21.81,0,0,1,3.09.21,20,20,0,0,1,2.82.61l3.94-1-5.36,26.81a14.49,14.49,0,0,1-1.24,3.69,9.22,9.22,0,0,1-2.26,2.89,10.06,10.06,0,0,1-3.49,1.9,15.51,15.51,0,0,1-4.79.67,14.94,14.94,0,0,1-5.06-.77,13.93,13.93,0,0,1-3.39-1.67l2.19-3.19a13.74,13.74,0,0,0,3.05,1.57,10.31,10.31,0,0,0,3.58.6,8.15,8.15,0,0,0,3.19-.54,5.59,5.59,0,0,0,2-1.43,6.82,6.82,0,0,0,1.23-2.07A18.69,18.69,0,0,0,420.95,518.61Zm-10.28-8.88a7.12,7.12,0,0,0,.82,3.72,2.89,2.89,0,0,0,2.67,1.35,5.05,5.05,0,0,0,2.14-.5,9,9,0,0,0,2.08-1.37,14.71,14.71,0,0,0,1.93-2,19.44,19.44,0,0,0,1.67-2.51,21.41,21.41,0,0,0,1.3-2.76,16.94,16.94,0,0,0,.82-2.82l1.07-5.41a14.53,14.53,0,0,0-2.41-.79,10.15,10.15,0,0,0-2.28-.29,8.47,8.47,0,0,0-3.57.7,8.67,8.67,0,0,0-2.62,1.82,9.69,9.69,0,0,0-1.8,2.56,17,17,0,0,0-1.11,2.93,19.34,19.34,0,0,0-.57,2.92A22.27,22.27,0,0,0,410.67,509.73Z" style="fill:#9ee00f"/><path d="M455.91,516.54a17,17,0,0,1-3.63,1.48,15,15,0,0,1-4.08.54,7.74,7.74,0,0,1-3-.5,3.72,3.72,0,0,1-1.83-1.58,6,6,0,0,1-.71-2.78,17.8,17.8,0,0,1,.4-4.12l1.7-8.38a11.25,11.25,0,0,0,.29-2.38,4,4,0,0,0-.26-1.53,1.54,1.54,0,0,0-.74-0.81,2.58,2.58,0,0,0-1.13-.24,8.91,8.91,0,0,0-3.34.66,29.16,29.16,0,0,0-3.34,1.61v-3.84a17.53,17.53,0,0,1,3.63-1.5,14.69,14.69,0,0,1,4.08-.55,7.74,7.74,0,0,1,3,.5,3.73,3.73,0,0,1,1.83,1.58,6,6,0,0,1,.71,2.78,17.8,17.8,0,0,1-.4,4.12l-1.7,8.38a13.25,13.25,0,0,0-.27,2.39,3.7,3.7,0,0,0,.26,1.52,1.61,1.61,0,0,0,.74.81,2.48,2.48,0,0,0,1.12.24,8.9,8.9,0,0,0,3.34-.66,31.86,31.86,0,0,0,3.34-1.58v3.84Zm-10.3-30.4a3.6,3.6,0,0,1,.27-1.42,3.39,3.39,0,0,1,.76-1.12,3.65,3.65,0,0,1,1.13-.75,3.55,3.55,0,0,1,1.4-.27,3.26,3.26,0,0,1,1.32.26,3.33,3.33,0,0,1,1,.7,3,3,0,0,1,.67,1,3.44,3.44,0,0,1,.24,1.27,3.61,3.61,0,0,1-.27,1.42,3.39,3.39,0,0,1-.76,1.12,3.63,3.63,0,0,1-1.13.75,3.53,3.53,0,0,1-1.4.27,3.33,3.33,0,0,1-1.33-.26,3.14,3.14,0,0,1-1-.7,3.08,3.08,0,0,1-.66-1A3.4,3.4,0,0,1,445.61,486.14Z" style="fill:#9ee00f"/><path d="M482.22,517.76a24.67,24.67,0,0,1-3.1.54,26.21,26.21,0,0,1-2.73.16,14.8,14.8,0,0,1-4.35-.56,5.57,5.57,0,0,1-4.16-4.94,14.24,14.24,0,0,1,.31-4.7l2.29-11.55h-7l0.72-3.64h7l1.4-6.88,4.59-1.12-1.65,8h11.25L486,496.71H474.81l-2.34,11.7a11.5,11.5,0,0,0-.27,2.93,3.9,3.9,0,0,0,.6,2,2.94,2.94,0,0,0,1.52,1.12,7.8,7.8,0,0,0,2.54.35,18,18,0,0,0,2.32-.19,29.74,29.74,0,0,0,3-.59v3.74Z" style="fill:#9ee00f"/><path d="M504.89,492.77A21.81,21.81,0,0,1,508,493a20,20,0,0,1,2.82.61l3.94-1-2.82,14q-0.1.47-.21,1.25t-0.26,2.08l-0.37,3.29q-0.22,2-.52,4.88h-4.09l0.62-5.76a13.26,13.26,0,0,1-4.18,4.6,9.54,9.54,0,0,1-5.32,1.61,7.6,7.6,0,0,1-3.13-.6,5.76,5.76,0,0,1-2.21-1.71,7.4,7.4,0,0,1-1.3-2.66,13,13,0,0,1-.42-3.44,23.65,23.65,0,0,1,.93-6.75,16.8,16.8,0,0,1,2.76-5.52,13.18,13.18,0,0,1,4.5-3.74A13.37,13.37,0,0,1,504.89,492.77Zm-10,17a7.12,7.12,0,0,0,.82,3.72,2.89,2.89,0,0,0,2.67,1.35,5.05,5.05,0,0,0,2.14-.5,9.23,9.23,0,0,0,2.09-1.37,13.56,13.56,0,0,0,1.93-2.06,21,21,0,0,0,1.67-2.54,20.4,20.4,0,0,0,2.16-5.8l1-5.14a14.53,14.53,0,0,0-2.41-.79,10.15,10.15,0,0,0-2.28-.29,8.47,8.47,0,0,0-3.57.7,8.67,8.67,0,0,0-2.62,1.82,9.69,9.69,0,0,0-1.8,2.56,17,17,0,0,0-1.11,2.93,19.34,19.34,0,0,0-.57,2.92A22.27,22.27,0,0,0,494.91,509.73Z" style="fill:#9ee00f"/><path d="M539,516.42a30.47,30.47,0,0,1-4.78,1.51,22.13,22.13,0,0,1-4.88.54,10.88,10.88,0,0,1-3.84-.57,4.24,4.24,0,0,1-2.24-1.88,7,7,0,0,1-.77-3.43,26.27,26.27,0,0,1,.57-5.19l5-24.51h4.44l-4.89,24.51A31.8,31.8,0,0,0,527,511a5.88,5.88,0,0,0,.16,2.24,1.85,1.85,0,0,0,.94,1.15,4,4,0,0,0,1.76.32,18.31,18.31,0,0,0,4.1-.52,32.56,32.56,0,0,0,5-1.67v3.87Z" style="fill:#9ee00f"/><path d="M591.78,518.11l3.52-17.51q0.27-1.37.37-2.22a7.24,7.24,0,0,0,.06-1.32,1.1,1.1,0,0,0-.2-0.65,0.57,0.57,0,0,0-.44-0.17,1.9,1.9,0,0,0-1.16.57,10.27,10.27,0,0,0-1.38,1.52,21.44,21.44,0,0,0-1.45,2.18q-0.72,1.23-1.36,2.57t-1.11,2.64a14.74,14.74,0,0,0-.67,2.43l-2,10h-4l3.52-17.51q0.27-1.37.37-2.22a7.26,7.26,0,0,0,.06-1.32,1.1,1.1,0,0,0-.2-0.65,0.57,0.57,0,0,0-.44-0.17,1.9,1.9,0,0,0-1.16.57,10.22,10.22,0,0,0-1.38,1.52,22.7,22.7,0,0,0-1.46,2.18,28.87,28.87,0,0,0-1.36,2.57q-0.62,1.33-1.1,2.64a17,17,0,0,0-.7,2.43l-2,10h-4l2.69-13.54q0.1-.47.21-1.25t0.27-2.08q0.16-1.31.39-3.29t0.52-4.88H580l-0.62,5.79q0.7-1.27,1.45-2.39a15.19,15.19,0,0,1,1.56-2,6.92,6.92,0,0,1,1.73-1.36,4.41,4.41,0,0,1,4.08,0,3,3,0,0,1,1.22,1.35,4.28,4.28,0,0,1,.34,2,7.51,7.51,0,0,1-.55,2.41q0.7-1.27,1.43-2.39a14.39,14.39,0,0,1,1.55-2,6.93,6.93,0,0,1,1.73-1.36,4.08,4.08,0,0,1,2-.5,3.32,3.32,0,0,1,3.35,1.88q0.86,1.88.06,5.87l-3.52,17.73h-4Z" style="fill:#9ee00f"/><path d="M607.76,507q-0.13.65-.19,1.22a10.43,10.43,0,0,0-.06,1.12,5.29,5.29,0,0,0,1.62,4.16,7.37,7.37,0,0,0,5,1.45,29.13,29.13,0,0,0,4.35-.32q2.16-.32,3.85-0.75v3.57a33.7,33.7,0,0,1-4.2.81,35.65,35.65,0,0,1-4.73.31q-5.29,0-7.81-2.36t-2.52-6.82a19.35,19.35,0,0,1,1.07-6.48,17.19,17.19,0,0,1,3-5.32,14.25,14.25,0,0,1,4.5-3.62,12.27,12.27,0,0,1,5.67-1.33,13.12,13.12,0,0,1,3.78.5,8.76,8.76,0,0,1,2.81,1.37,5.94,5.94,0,0,1,1.75,2.06,5.58,5.58,0,0,1,.6,2.56,6.86,6.86,0,0,1-.76,3.24,6.56,6.56,0,0,1-2.42,2.48,13.35,13.35,0,0,1-4.28,1.6,30.73,30.73,0,0,1-6.33.56h-4.69Zm4.64-3.34a25.63,25.63,0,0,0,4.58-.34,10,10,0,0,0,2.87-.91,3.6,3.6,0,0,0,1.48-1.32,3.09,3.09,0,0,0,.42-1.55,3.25,3.25,0,0,0-.27-1.32,2.93,2.93,0,0,0-.86-1.1,4.38,4.38,0,0,0-1.47-.75,7.06,7.06,0,0,0-2.08-.27,7.66,7.66,0,0,0-5.36,2.06,10.33,10.33,0,0,0-1.9,2.38,16.23,16.23,0,0,0-1.4,3.12h4Z" style="fill:#9ee00f"/><path d="M645.29,492.77a25.92,25.92,0,0,1,3,.15,14.38,14.38,0,0,1,2.33.47l2.09-10.52h4.34l-4.76,23.74q-0.1.47-.21,1.25t-0.26,2.08l-0.37,3.29q-0.22,2-.52,4.88h-4.09l0.62-5.76a13.26,13.26,0,0,1-4.18,4.6,9.54,9.54,0,0,1-5.32,1.61,7.6,7.6,0,0,1-3.13-.6,5.76,5.76,0,0,1-2.21-1.71,7.4,7.4,0,0,1-1.3-2.66,13,13,0,0,1-.42-3.44,23.65,23.65,0,0,1,.93-6.75,16.8,16.8,0,0,1,2.76-5.52,13.18,13.18,0,0,1,4.5-3.74A13.37,13.37,0,0,1,645.29,492.77Zm-10,17a7.12,7.12,0,0,0,.82,3.72,2.89,2.89,0,0,0,2.67,1.35,5.05,5.05,0,0,0,2.14-.5,9.23,9.23,0,0,0,2.09-1.37,13.56,13.56,0,0,0,1.93-2.06,21,21,0,0,0,1.67-2.54,20.4,20.4,0,0,0,2.16-5.8l1-5.14a14.53,14.53,0,0,0-2.41-.79,10.15,10.15,0,0,0-2.28-.29,8.47,8.47,0,0,0-3.57.7,8.67,8.67,0,0,0-2.62,1.82,9.69,9.69,0,0,0-1.8,2.56,17,17,0,0,0-1.11,2.93,19.34,19.34,0,0,0-.57,2.92A22.27,22.27,0,0,0,635.32,509.73Z" style="fill:#9ee00f"/><path d="M680.56,516.54a17,17,0,0,1-3.63,1.48,15,15,0,0,1-4.08.54,7.74,7.74,0,0,1-3-.5,3.72,3.72,0,0,1-1.83-1.58,6,6,0,0,1-.71-2.78,17.8,17.8,0,0,1,.4-4.12l1.7-8.38a11.25,11.25,0,0,0,.29-2.38,4,4,0,0,0-.26-1.53,1.54,1.54,0,0,0-.74-0.81,2.58,2.58,0,0,0-1.13-.24,8.91,8.91,0,0,0-3.34.66,29.16,29.16,0,0,0-3.34,1.61v-3.84a17.53,17.53,0,0,1,3.63-1.5,14.69,14.69,0,0,1,4.08-.55,7.74,7.74,0,0,1,3,.5,3.73,3.73,0,0,1,1.83,1.58,6,6,0,0,1,.71,2.78,17.8,17.8,0,0,1-.4,4.12L672,510a13.25,13.25,0,0,0-.27,2.39,3.7,3.7,0,0,0,.26,1.52,1.61,1.61,0,0,0,.74.81,2.48,2.48,0,0,0,1.12.24,8.9,8.9,0,0,0,3.34-.66,31.86,31.86,0,0,0,3.34-1.58v3.84Zm-10.3-30.4a3.6,3.6,0,0,1,.27-1.42,3.39,3.39,0,0,1,.76-1.12,3.65,3.65,0,0,1,1.13-.75,3.55,3.55,0,0,1,1.4-.27,3.26,3.26,0,0,1,1.32.26,3.33,3.33,0,0,1,1,.7,3,3,0,0,1,.67,1,3.44,3.44,0,0,1,.24,1.27,3.61,3.61,0,0,1-.27,1.42,3.39,3.39,0,0,1-.76,1.12,3.63,3.63,0,0,1-1.13.75,3.53,3.53,0,0,1-1.4.27,3.33,3.33,0,0,1-1.33-.26,3.14,3.14,0,0,1-1-.7,3.08,3.08,0,0,1-.66-1A3.4,3.4,0,0,1,670.26,486.14Z" style="fill:#9ee00f"/><path d="M701.46,492.77a21.81,21.81,0,0,1,3.09.21,20,20,0,0,1,2.82.61l3.94-1-2.82,14q-0.1.47-.21,1.25T708,509.94l-0.37,3.29q-0.22,2-.52,4.88H703l0.62-5.76a13.26,13.26,0,0,1-4.18,4.6,9.54,9.54,0,0,1-5.32,1.61A7.6,7.6,0,0,1,691,518a5.76,5.76,0,0,1-2.21-1.71,7.4,7.4,0,0,1-1.3-2.66,13,13,0,0,1-.42-3.44,23.65,23.65,0,0,1,.93-6.75,16.8,16.8,0,0,1,2.76-5.52,13.18,13.18,0,0,1,4.5-3.74A13.37,13.37,0,0,1,701.46,492.77Zm-10,17a7.12,7.12,0,0,0,.82,3.72,2.89,2.89,0,0,0,2.67,1.35,5.05,5.05,0,0,0,2.14-.5,9.23,9.23,0,0,0,2.09-1.37,13.56,13.56,0,0,0,1.93-2.06,21,21,0,0,0,1.67-2.54,20.4,20.4,0,0,0,2.16-5.8l1-5.14a14.53,14.53,0,0,0-2.41-.79,10.15,10.15,0,0,0-2.28-.29,8.47,8.47,0,0,0-3.57.7,8.67,8.67,0,0,0-2.62,1.82,9.69,9.69,0,0,0-1.8,2.56,17,17,0,0,0-1.11,2.93,19.34,19.34,0,0,0-.57,2.92A22.27,22.27,0,0,0,691.48,509.73Z" style="fill:#9ee00f"/></svg>